<?xml version="1.0" standalone="no"?>
<!DOCTYPE svg PUBLIC "-//W3C//DTD SVG 1.1//EN" "http://www.w3.org/Graphics/SVG/1.1/DTD/svg11.dtd">
<svg width="1005" height="600" version="1.1" xmlns="http://www.w3.org/2000/svg">
<rect width="1005" height="600" x="0" y="0" style="fill:rgb(238,238,238);stroke:none"/>
<rect width="1005" height="600" x="0" y="0" style="fill:rgb(255,255,255);stroke:none"/>
<text x="2" y="560" fill="rgb(0,0,0)" font-family="Arial" font-size="12">2210</text>
<text x="471" y="30" fill="rgb(0,0,0)" font-family="Arial" font-size="12">Quality per tile</text>
<line x1="37" y1="560" x2="995" y2="560" stroke="rgb(0,0,0)" stroke-width="1"/>
<line x1="37" y1="560" x2="37" y2="40" stroke="rgb(0,0,0)" stroke-width="1"/>
<text x="438" y="595" fill="rgb(0,0,0)" font-family="Arial" font-size="12">Position in read (bp)</text>
<text x="40" y="575" fill="rgb(0,0,0)" font-family="Arial" font-size="12">1</text>
<text x="54" y="575" fill="rgb(0,0,0)" font-family="Arial" font-size="12">2</text>
<text x="68" y="575" fill="rgb(0,0,0)" font-family="Arial" font-size="12">3</text>
<text x="82" y="575" fill="rgb(0,0,0)" font-family="Arial" font-size="12">4</text>
<text x="96" y="575" fill="rgb(0,0,0)" font-family="Arial" font-size="12">5</text>
<text x="110" y="575" fill="rgb(0,0,0)" font-family="Arial" font-size="12">6</text>
<text x="124" y="575" fill="rgb(0,0,0)" font-family="Arial" font-size="12">7</text>
<text x="138" y="575" fill="rgb(0,0,0)" font-family="Arial" font-size="12">8</text>
<text x="152" y="575" fill="rgb(0,0,0)" font-family="Arial" font-size="12">9</text>
<text x="166" y="575" fill="rgb(0,0,0)" font-family="Arial" font-size="12">12-13</text>
<text x="208" y="575" fill="rgb(0,0,0)" font-family="Arial" font-size="12">18-19</text>
<text x="250" y="575" fill="rgb(0,0,0)" font-family="Arial" font-size="12">24-25</text>
<text x="292" y="575" fill="rgb(0,0,0)" font-family="Arial" font-size="12">30-31</text>
<text x="334" y="575" fill="rgb(0,0,0)" font-family="Arial" font-size="12">36-37</text>
<text x="376" y="575" fill="rgb(0,0,0)" font-family="Arial" font-size="12">42-43</text>
<text x="418" y="575" fill="rgb(0,0,0)" font-family="Arial" font-size="12">48-49</text>
<text x="460" y="575" fill="rgb(0,0,0)" font-family="Arial" font-size="12">54-55</text>
<text x="502" y="575" fill="rgb(0,0,0)" font-family="Arial" font-size="12">60-61</text>
<text x="544" y="575" fill="rgb(0,0,0)" font-family="Arial" font-size="12">66-67</text>
<text x="586" y="575" fill="rgb(0,0,0)" font-family="Arial" font-size="12">72-73</text>
<text x="628" y="575" fill="rgb(0,0,0)" font-family="Arial" font-size="12">78-79</text>
<text x="670" y="575" fill="rgb(0,0,0)" font-family="Arial" font-size="12">84-85</text>
<text x="712" y="575" fill="rgb(0,0,0)" font-family="Arial" font-size="12">90-91</text>
<text x="754" y="575" fill="rgb(0,0,0)" font-family="Arial" font-size="12">96-97</text>
<text x="802" y="575" fill="rgb(0,0,0)" font-family="Arial" font-size="12">104-105</text>
<text x="872" y="575" fill="rgb(0,0,0)" font-family="Arial" font-size="12">114-115</text>
<text x="942" y="575" fill="rgb(0,0,0)" font-family="Arial" font-size="12">124-125</text>
<rect width="14" height="520" x="37" y="40" style="fill:rgb(0,0,200);stroke:none"/>
<rect width="14" height="520" x="51" y="40" style="fill:rgb(0,0,200);stroke:none"/>
<rect width="14" height="520" x="65" y="40" style="fill:rgb(0,0,200);stroke:none"/>
<rect width="14" height="520" x="79" y="40" style="fill:rgb(0,0,200);stroke:none"/>
<rect width="14" height="520" x="93" y="40" style="fill:rgb(0,0,200);stroke:none"/>
<rect width="14" height="520" x="107" y="40" style="fill:rgb(0,0,200);stroke:none"/>
<rect width="14" height="520" x="121" y="40" style="fill:rgb(0,0,200);stroke:none"/>
<rect width="14" height="520" x="135" y="40" style="fill:rgb(0,0,200);stroke:none"/>
<rect width="14" height="520" x="149" y="40" style="fill:rgb(0,0,200);stroke:none"/>
<rect width="14" height="520" x="163" y="40" style="fill:rgb(0,0,200);stroke:none"/>
<rect width="14" height="520" x="177" y="40" style="fill:rgb(0,0,200);stroke:none"/>
<rect width="14" height="520" x="191" y="40" style="fill:rgb(0,0,200);stroke:none"/>
<rect width="14" height="520" x="205" y="40" style="fill:rgb(0,0,200);stroke:none"/>
<rect width="14" height="520" x="219" y="40" style="fill:rgb(0,0,200);stroke:none"/>
<rect width="14" height="520" x="233" y="40" style="fill:rgb(0,0,200);stroke:none"/>
<rect width="14" height="520" x="247" y="40" style="fill:rgb(0,0,200);stroke:none"/>
<rect width="14" height="520" x="261" y="40" style="fill:rgb(0,0,200);stroke:none"/>
<rect width="14" height="520" x="275" y="40" style="fill:rgb(0,0,200);stroke:none"/>
<rect width="14" height="520" x="289" y="40" style="fill:rgb(0,0,200);stroke:none"/>
<rect width="14" height="520" x="303" y="40" style="fill:rgb(0,0,200);stroke:none"/>
<rect width="14" height="520" x="317" y="40" style="fill:rgb(0,0,200);stroke:none"/>
<rect width="14" height="520" x="331" y="40" style="fill:rgb(0,0,200);stroke:none"/>
<rect width="14" height="520" x="345" y="40" style="fill:rgb(0,0,200);stroke:none"/>
<rect width="14" height="520" x="359" y="40" style="fill:rgb(0,0,200);stroke:none"/>
<rect width="14" height="520" x="373" y="40" style="fill:rgb(0,0,200);stroke:none"/>
<rect width="14" height="520" x="387" y="40" style="fill:rgb(0,0,200);stroke:none"/>
<rect width="14" height="520" x="401" y="40" style="fill:rgb(0,0,200);stroke:none"/>
<rect width="14" height="520" x="415" y="40" style="fill:rgb(0,0,200);stroke:none"/>
<rect width="14" height="520" x="429" y="40" style="fill:rgb(0,0,200);stroke:none"/>
<rect width="14" height="520" x="443" y="40" style="fill:rgb(0,0,200);stroke:none"/>
<rect width="14" height="520" x="457" y="40" style="fill:rgb(0,0,200);stroke:none"/>
<rect width="14" height="520" x="471" y="40" style="fill:rgb(0,0,200);stroke:none"/>
<rect width="14" height="520" x="485" y="40" style="fill:rgb(0,0,200);stroke:none"/>
<rect width="14" height="520" x="499" y="40" style="fill:rgb(0,0,200);stroke:none"/>
<rect width="14" height="520" x="513" y="40" style="fill:rgb(0,0,200);stroke:none"/>
<rect width="14" height="520" x="527" y="40" style="fill:rgb(0,0,200);stroke:none"/>
<rect width="14" height="520" x="541" y="40" style="fill:rgb(0,0,200);stroke:none"/>
<rect width="14" height="520" x="555" y="40" style="fill:rgb(0,0,200);stroke:none"/>
<rect width="14" height="520" x="569" y="40" style="fill:rgb(0,0,200);stroke:none"/>
<rect width="14" height="520" x="583" y="40" style="fill:rgb(0,0,200);stroke:none"/>
<rect width="14" height="520" x="597" y="40" style="fill:rgb(0,0,200);stroke:none"/>
<rect width="14" height="520" x="611" y="40" style="fill:rgb(0,0,200);stroke:none"/>
<rect width="14" height="520" x="625" y="40" style="fill:rgb(0,0,200);stroke:none"/>
<rect width="14" height="520" x="639" y="40" style="fill:rgb(0,0,200);stroke:none"/>
<rect width="14" height="520" x="653" y="40" style="fill:rgb(0,0,200);stroke:none"/>
<rect width="14" height="520" x="667" y="40" style="fill:rgb(0,0,200);stroke:none"/>
<rect width="14" height="520" x="681" y="40" style="fill:rgb(0,0,200);stroke:none"/>
<rect width="14" height="520" x="695" y="40" style="fill:rgb(0,0,200);stroke:none"/>
<rect width="14" height="520" x="709" y="40" style="fill:rgb(0,0,200);stroke:none"/>
<rect width="14" height="520" x="723" y="40" style="fill:rgb(0,0,200);stroke:none"/>
<rect width="14" height="520" x="737" y="40" style="fill:rgb(0,0,200);stroke:none"/>
<rect width="14" height="520" x="751" y="40" style="fill:rgb(0,0,200);stroke:none"/>
<rect width="14" height="520" x="765" y="40" style="fill:rgb(0,0,200);stroke:none"/>
<rect width="14" height="520" x="779" y="40" style="fill:rgb(0,0,200);stroke:none"/>
<rect width="14" height="520" x="793" y="40" style="fill:rgb(0,0,200);stroke:none"/>
<rect width="14" height="520" x="807" y="40" style="fill:rgb(0,0,200);stroke:none"/>
<rect width="14" height="520" x="821" y="40" style="fill:rgb(0,0,200);stroke:none"/>
<rect width="14" height="520" x="835" y="40" style="fill:rgb(0,0,200);stroke:none"/>
<rect width="14" height="520" x="849" y="40" style="fill:rgb(0,0,200);stroke:none"/>
<rect width="14" height="520" x="863" y="40" style="fill:rgb(0,0,200);stroke:none"/>
<rect width="14" height="520" x="877" y="40" style="fill:rgb(0,0,200);stroke:none"/>
<rect width="14" height="520" x="891" y="40" style="fill:rgb(0,0,200);stroke:none"/>
<rect width="14" height="520" x="905" y="40" style="fill:rgb(0,0,200);stroke:none"/>
<rect width="14" height="520" x="919" y="40" style="fill:rgb(0,0,200);stroke:none"/>
<rect width="14" height="520" x="933" y="40" style="fill:rgb(0,0,200);stroke:none"/>
<rect width="14" height="520" x="947" y="40" style="fill:rgb(0,0,200);stroke:none"/>
<rect width="14" height="520" x="961" y="40" style="fill:rgb(0,0,200);stroke:none"/>
</svg>
