<?xml version="1.0" standalone="no"?>
<!DOCTYPE svg PUBLIC "-//W3C//DTD SVG 1.1//EN" "http://www.w3.org/Graphics/SVG/1.1/DTD/svg11.dtd">
<svg width="800" height="600" version="1.1" xmlns="http://www.w3.org/2000/svg">
<rect width="800" height="600" x="0" y="0" style="fill:rgb(238,238,238);stroke:none"/>
<rect width="800" height="600" x="0" y="0" style="fill:rgb(255,255,255);stroke:none"/>
<text x="2" y="566" fill="rgb(0,0,0)" font-family="Arial" font-size="12">0</text>
<text x="2" y="499" fill="rgb(0,0,0)" font-family="Arial" font-size="12">200</text>
<text x="2" y="432" fill="rgb(0,0,0)" font-family="Arial" font-size="12">400</text>
<text x="2" y="364" fill="rgb(0,0,0)" font-family="Arial" font-size="12">600</text>
<text x="2" y="297" fill="rgb(0,0,0)" font-family="Arial" font-size="12">800</text>
<text x="2" y="230" fill="rgb(0,0,0)" font-family="Arial" font-size="12">1000</text>
<text x="2" y="162" fill="rgb(0,0,0)" font-family="Arial" font-size="12">1200</text>
<text x="2" y="95" fill="rgb(0,0,0)" font-family="Arial" font-size="12">1400</text>
<text x="306" y="30" fill="rgb(0,0,0)" font-family="Arial" font-size="12">GC distribution over all sequences</text>
<line x1="37" y1="560" x2="790" y2="560" stroke="rgb(0,0,0)" stroke-width="1"/>
<line x1="37" y1="560" x2="37" y2="40" stroke="rgb(0,0,0)" stroke-width="1"/>
<text x="334" y="595" fill="rgb(0,0,0)" font-family="Arial" font-size="12">Mean GC content (%)</text>
<text x="36" y="575" fill="rgb(0,0,0)" font-family="Arial" font-size="12">0</text>
<rect width="7" height="520" x="44" y="40" style="fill:rgb(230,230,230);stroke:none"/>
<text x="50" y="575" fill="rgb(0,0,0)" font-family="Arial" font-size="12">2</text>
<rect width="7" height="520" x="58" y="40" style="fill:rgb(230,230,230);stroke:none"/>
<text x="64" y="575" fill="rgb(0,0,0)" font-family="Arial" font-size="12">4</text>
<rect width="7" height="520" x="72" y="40" style="fill:rgb(230,230,230);stroke:none"/>
<text x="78" y="575" fill="rgb(0,0,0)" font-family="Arial" font-size="12">6</text>
<rect width="7" height="520" x="86" y="40" style="fill:rgb(230,230,230);stroke:none"/>
<text x="92" y="575" fill="rgb(0,0,0)" font-family="Arial" font-size="12">8</text>
<rect width="7" height="520" x="100" y="40" style="fill:rgb(230,230,230);stroke:none"/>
<rect width="7" height="520" x="114" y="40" style="fill:rgb(230,230,230);stroke:none"/>
<text x="109" y="575" fill="rgb(0,0,0)" font-family="Arial" font-size="12">11</text>
<rect width="7" height="520" x="128" y="40" style="fill:rgb(230,230,230);stroke:none"/>
<rect width="7" height="520" x="142" y="40" style="fill:rgb(230,230,230);stroke:none"/>
<text x="137" y="575" fill="rgb(0,0,0)" font-family="Arial" font-size="12">15</text>
<rect width="7" height="520" x="156" y="40" style="fill:rgb(230,230,230);stroke:none"/>
<rect width="7" height="520" x="170" y="40" style="fill:rgb(230,230,230);stroke:none"/>
<text x="165" y="575" fill="rgb(0,0,0)" font-family="Arial" font-size="12">19</text>
<rect width="7" height="520" x="184" y="40" style="fill:rgb(230,230,230);stroke:none"/>
<rect width="7" height="520" x="198" y="40" style="fill:rgb(230,230,230);stroke:none"/>
<text x="193" y="575" fill="rgb(0,0,0)" font-family="Arial" font-size="12">23</text>
<rect width="7" height="520" x="212" y="40" style="fill:rgb(230,230,230);stroke:none"/>
<rect width="7" height="520" x="226" y="40" style="fill:rgb(230,230,230);stroke:none"/>
<text x="221" y="575" fill="rgb(0,0,0)" font-family="Arial" font-size="12">27</text>
<rect width="7" height="520" x="240" y="40" style="fill:rgb(230,230,230);stroke:none"/>
<rect width="7" height="520" x="254" y="40" style="fill:rgb(230,230,230);stroke:none"/>
<text x="249" y="575" fill="rgb(0,0,0)" font-family="Arial" font-size="12">31</text>
<rect width="7" height="520" x="268" y="40" style="fill:rgb(230,230,230);stroke:none"/>
<rect width="7" height="520" x="282" y="40" style="fill:rgb(230,230,230);stroke:none"/>
<text x="277" y="575" fill="rgb(0,0,0)" font-family="Arial" font-size="12">35</text>
<rect width="7" height="520" x="296" y="40" style="fill:rgb(230,230,230);stroke:none"/>
<rect width="7" height="520" x="310" y="40" style="fill:rgb(230,230,230);stroke:none"/>
<text x="305" y="575" fill="rgb(0,0,0)" font-family="Arial" font-size="12">39</text>
<rect width="7" height="520" x="324" y="40" style="fill:rgb(230,230,230);stroke:none"/>
<rect width="7" height="520" x="338" y="40" style="fill:rgb(230,230,230);stroke:none"/>
<text x="333" y="575" fill="rgb(0,0,0)" font-family="Arial" font-size="12">43</text>
<rect width="7" height="520" x="352" y="40" style="fill:rgb(230,230,230);stroke:none"/>
<rect width="7" height="520" x="366" y="40" style="fill:rgb(230,230,230);stroke:none"/>
<text x="361" y="575" fill="rgb(0,0,0)" font-family="Arial" font-size="12">47</text>
<rect width="7" height="520" x="380" y="40" style="fill:rgb(230,230,230);stroke:none"/>
<rect width="7" height="520" x="394" y="40" style="fill:rgb(230,230,230);stroke:none"/>
<text x="389" y="575" fill="rgb(0,0,0)" font-family="Arial" font-size="12">51</text>
<rect width="7" height="520" x="408" y="40" style="fill:rgb(230,230,230);stroke:none"/>
<rect width="7" height="520" x="422" y="40" style="fill:rgb(230,230,230);stroke:none"/>
<text x="417" y="575" fill="rgb(0,0,0)" font-family="Arial" font-size="12">55</text>
<rect width="7" height="520" x="436" y="40" style="fill:rgb(230,230,230);stroke:none"/>
<rect width="7" height="520" x="450" y="40" style="fill:rgb(230,230,230);stroke:none"/>
<text x="445" y="575" fill="rgb(0,0,0)" font-family="Arial" font-size="12">59</text>
<rect width="7" height="520" x="464" y="40" style="fill:rgb(230,230,230);stroke:none"/>
<rect width="7" height="520" x="478" y="40" style="fill:rgb(230,230,230);stroke:none"/>
<text x="473" y="575" fill="rgb(0,0,0)" font-family="Arial" font-size="12">63</text>
<rect width="7" height="520" x="492" y="40" style="fill:rgb(230,230,230);stroke:none"/>
<rect width="7" height="520" x="506" y="40" style="fill:rgb(230,230,230);stroke:none"/>
<text x="501" y="575" fill="rgb(0,0,0)" font-family="Arial" font-size="12">67</text>
<rect width="7" height="520" x="520" y="40" style="fill:rgb(230,230,230);stroke:none"/>
<rect width="7" height="520" x="534" y="40" style="fill:rgb(230,230,230);stroke:none"/>
<text x="529" y="575" fill="rgb(0,0,0)" font-family="Arial" font-size="12">71</text>
<rect width="7" height="520" x="548" y="40" style="fill:rgb(230,230,230);stroke:none"/>
<rect width="7" height="520" x="562" y="40" style="fill:rgb(230,230,230);stroke:none"/>
<text x="557" y="575" fill="rgb(0,0,0)" font-family="Arial" font-size="12">75</text>
<rect width="7" height="520" x="576" y="40" style="fill:rgb(230,230,230);stroke:none"/>
<rect width="7" height="520" x="590" y="40" style="fill:rgb(230,230,230);stroke:none"/>
<text x="585" y="575" fill="rgb(0,0,0)" font-family="Arial" font-size="12">79</text>
<rect width="7" height="520" x="604" y="40" style="fill:rgb(230,230,230);stroke:none"/>
<rect width="7" height="520" x="618" y="40" style="fill:rgb(230,230,230);stroke:none"/>
<text x="613" y="575" fill="rgb(0,0,0)" font-family="Arial" font-size="12">83</text>
<rect width="7" height="520" x="632" y="40" style="fill:rgb(230,230,230);stroke:none"/>
<rect width="7" height="520" x="646" y="40" style="fill:rgb(230,230,230);stroke:none"/>
<text x="641" y="575" fill="rgb(0,0,0)" font-family="Arial" font-size="12">87</text>
<rect width="7" height="520" x="660" y="40" style="fill:rgb(230,230,230);stroke:none"/>
<rect width="7" height="520" x="674" y="40" style="fill:rgb(230,230,230);stroke:none"/>
<text x="669" y="575" fill="rgb(0,0,0)" font-family="Arial" font-size="12">91</text>
<rect width="7" height="520" x="688" y="40" style="fill:rgb(230,230,230);stroke:none"/>
<rect width="7" height="520" x="702" y="40" style="fill:rgb(230,230,230);stroke:none"/>
<text x="697" y="575" fill="rgb(0,0,0)" font-family="Arial" font-size="12">95</text>
<rect width="7" height="520" x="716" y="40" style="fill:rgb(230,230,230);stroke:none"/>
<rect width="7" height="520" x="730" y="40" style="fill:rgb(230,230,230);stroke:none"/>
<text x="725" y="575" fill="rgb(0,0,0)" font-family="Arial" font-size="12">99</text>
<line x1="37" y1="560" x2="790" y2="560" stroke="rgb(180,180,180)" stroke-width="1"/>
<line x1="37" y1="493" x2="790" y2="493" stroke="rgb(180,180,180)" stroke-width="1"/>
<line x1="37" y1="426" x2="790" y2="426" stroke="rgb(180,180,180)" stroke-width="1"/>
<line x1="37" y1="358" x2="790" y2="358" stroke="rgb(180,180,180)" stroke-width="1"/>
<line x1="37" y1="291" x2="790" y2="291" stroke="rgb(180,180,180)" stroke-width="1"/>
<line x1="37" y1="224" x2="790" y2="224" stroke="rgb(180,180,180)" stroke-width="1"/>
<line x1="37" y1="156" x2="790" y2="156" stroke="rgb(180,180,180)" stroke-width="1"/>
<line x1="37" y1="89" x2="790" y2="89" stroke="rgb(180,180,180)" stroke-width="1"/>
<line x1="40" y1="560" x2="47" y2="560" stroke="rgb(136,34,85)" stroke-width="1"/>
<line x1="47" y1="560" x2="54" y2="560" stroke="rgb(136,34,85)" stroke-width="1"/>
<line x1="54" y1="560" x2="61" y2="560" stroke="rgb(136,34,85)" stroke-width="1"/>
<line x1="61" y1="560" x2="68" y2="560" stroke="rgb(136,34,85)" stroke-width="1"/>
<line x1="68" y1="560" x2="75" y2="560" stroke="rgb(136,34,85)" stroke-width="1"/>
<line x1="75" y1="560" x2="82" y2="560" stroke="rgb(136,34,85)" stroke-width="1"/>
<line x1="82" y1="560" x2="89" y2="559" stroke="rgb(136,34,85)" stroke-width="1"/>
<line x1="89" y1="559" x2="96" y2="559" stroke="rgb(136,34,85)" stroke-width="1"/>
<line x1="96" y1="559" x2="103" y2="559" stroke="rgb(136,34,85)" stroke-width="1"/>
<line x1="103" y1="559" x2="110" y2="558" stroke="rgb(136,34,85)" stroke-width="1"/>
<line x1="110" y1="558" x2="117" y2="559" stroke="rgb(136,34,85)" stroke-width="1"/>
<line x1="117" y1="559" x2="124" y2="559" stroke="rgb(136,34,85)" stroke-width="1"/>
<line x1="124" y1="559" x2="131" y2="559" stroke="rgb(136,34,85)" stroke-width="1"/>
<line x1="131" y1="559" x2="138" y2="559" stroke="rgb(136,34,85)" stroke-width="1"/>
<line x1="138" y1="559" x2="145" y2="558" stroke="rgb(136,34,85)" stroke-width="1"/>
<line x1="145" y1="558" x2="152" y2="559" stroke="rgb(136,34,85)" stroke-width="1"/>
<line x1="152" y1="559" x2="159" y2="558" stroke="rgb(136,34,85)" stroke-width="1"/>
<line x1="159" y1="558" x2="166" y2="555" stroke="rgb(136,34,85)" stroke-width="1"/>
<line x1="166" y1="555" x2="173" y2="554" stroke="rgb(136,34,85)" stroke-width="1"/>
<line x1="173" y1="554" x2="180" y2="553" stroke="rgb(136,34,85)" stroke-width="1"/>
<line x1="180" y1="553" x2="187" y2="553" stroke="rgb(136,34,85)" stroke-width="1"/>
<line x1="187" y1="553" x2="194" y2="554" stroke="rgb(136,34,85)" stroke-width="1"/>
<line x1="194" y1="554" x2="201" y2="551" stroke="rgb(136,34,85)" stroke-width="1"/>
<line x1="201" y1="551" x2="208" y2="544" stroke="rgb(136,34,85)" stroke-width="1"/>
<line x1="208" y1="544" x2="215" y2="537" stroke="rgb(136,34,85)" stroke-width="1"/>
<line x1="215" y1="537" x2="222" y2="526" stroke="rgb(136,34,85)" stroke-width="1"/>
<line x1="222" y1="526" x2="229" y2="509" stroke="rgb(136,34,85)" stroke-width="1"/>
<line x1="229" y1="509" x2="236" y2="485" stroke="rgb(136,34,85)" stroke-width="1"/>
<line x1="236" y1="485" x2="243" y2="451" stroke="rgb(136,34,85)" stroke-width="1"/>
<line x1="243" y1="451" x2="250" y2="414" stroke="rgb(136,34,85)" stroke-width="1"/>
<line x1="250" y1="414" x2="257" y2="368" stroke="rgb(136,34,85)" stroke-width="1"/>
<line x1="257" y1="368" x2="264" y2="313" stroke="rgb(136,34,85)" stroke-width="1"/>
<line x1="264" y1="313" x2="271" y2="266" stroke="rgb(136,34,85)" stroke-width="1"/>
<line x1="271" y1="266" x2="278" y2="228" stroke="rgb(136,34,85)" stroke-width="1"/>
<line x1="278" y1="228" x2="285" y2="169" stroke="rgb(136,34,85)" stroke-width="1"/>
<line x1="285" y1="169" x2="292" y2="116" stroke="rgb(136,34,85)" stroke-width="1"/>
<line x1="292" y1="116" x2="299" y2="84" stroke="rgb(136,34,85)" stroke-width="1"/>
<line x1="299" y1="84" x2="306" y2="51" stroke="rgb(136,34,85)" stroke-width="1"/>
<line x1="306" y1="51" x2="313" y2="40" stroke="rgb(136,34,85)" stroke-width="1"/>
<line x1="313" y1="40" x2="320" y2="51" stroke="rgb(136,34,85)" stroke-width="1"/>
<line x1="320" y1="51" x2="327" y2="62" stroke="rgb(136,34,85)" stroke-width="1"/>
<line x1="327" y1="62" x2="334" y2="71" stroke="rgb(136,34,85)" stroke-width="1"/>
<line x1="334" y1="71" x2="341" y2="88" stroke="rgb(136,34,85)" stroke-width="1"/>
<line x1="341" y1="88" x2="348" y2="128" stroke="rgb(136,34,85)" stroke-width="1"/>
<line x1="348" y1="128" x2="355" y2="181" stroke="rgb(136,34,85)" stroke-width="1"/>
<line x1="355" y1="181" x2="362" y2="218" stroke="rgb(136,34,85)" stroke-width="1"/>
<line x1="362" y1="218" x2="369" y2="260" stroke="rgb(136,34,85)" stroke-width="1"/>
<line x1="369" y1="260" x2="376" y2="316" stroke="rgb(136,34,85)" stroke-width="1"/>
<line x1="376" y1="316" x2="383" y2="364" stroke="rgb(136,34,85)" stroke-width="1"/>
<line x1="383" y1="364" x2="390" y2="402" stroke="rgb(136,34,85)" stroke-width="1"/>
<line x1="390" y1="402" x2="397" y2="436" stroke="rgb(136,34,85)" stroke-width="1"/>
<line x1="397" y1="436" x2="404" y2="465" stroke="rgb(136,34,85)" stroke-width="1"/>
<line x1="404" y1="465" x2="411" y2="490" stroke="rgb(136,34,85)" stroke-width="1"/>
<line x1="411" y1="490" x2="418" y2="515" stroke="rgb(136,34,85)" stroke-width="1"/>
<line x1="418" y1="515" x2="425" y2="531" stroke="rgb(136,34,85)" stroke-width="1"/>
<line x1="425" y1="531" x2="432" y2="537" stroke="rgb(136,34,85)" stroke-width="1"/>
<line x1="432" y1="537" x2="439" y2="542" stroke="rgb(136,34,85)" stroke-width="1"/>
<line x1="439" y1="542" x2="446" y2="548" stroke="rgb(136,34,85)" stroke-width="1"/>
<line x1="446" y1="548" x2="453" y2="552" stroke="rgb(136,34,85)" stroke-width="1"/>
<line x1="453" y1="552" x2="460" y2="553" stroke="rgb(136,34,85)" stroke-width="1"/>
<line x1="460" y1="553" x2="467" y2="555" stroke="rgb(136,34,85)" stroke-width="1"/>
<line x1="467" y1="555" x2="474" y2="556" stroke="rgb(136,34,85)" stroke-width="1"/>
<line x1="474" y1="556" x2="481" y2="557" stroke="rgb(136,34,85)" stroke-width="1"/>
<line x1="481" y1="557" x2="488" y2="558" stroke="rgb(136,34,85)" stroke-width="1"/>
<line x1="488" y1="558" x2="495" y2="559" stroke="rgb(136,34,85)" stroke-width="1"/>
<line x1="495" y1="559" x2="502" y2="559" stroke="rgb(136,34,85)" stroke-width="1"/>
<line x1="502" y1="559" x2="509" y2="559" stroke="rgb(136,34,85)" stroke-width="1"/>
<line x1="509" y1="559" x2="516" y2="559" stroke="rgb(136,34,85)" stroke-width="1"/>
<line x1="516" y1="559" x2="523" y2="560" stroke="rgb(136,34,85)" stroke-width="1"/>
<line x1="523" y1="560" x2="530" y2="560" stroke="rgb(136,34,85)" stroke-width="1"/>
<line x1="530" y1="560" x2="537" y2="560" stroke="rgb(136,34,85)" stroke-width="1"/>
<line x1="537" y1="560" x2="544" y2="560" stroke="rgb(136,34,85)" stroke-width="1"/>
<line x1="544" y1="560" x2="551" y2="560" stroke="rgb(136,34,85)" stroke-width="1"/>
<line x1="551" y1="560" x2="558" y2="560" stroke="rgb(136,34,85)" stroke-width="1"/>
<line x1="558" y1="560" x2="565" y2="560" stroke="rgb(136,34,85)" stroke-width="1"/>
<line x1="565" y1="560" x2="572" y2="560" stroke="rgb(136,34,85)" stroke-width="1"/>
<line x1="572" y1="560" x2="579" y2="560" stroke="rgb(136,34,85)" stroke-width="1"/>
<line x1="579" y1="560" x2="586" y2="560" stroke="rgb(136,34,85)" stroke-width="1"/>
<line x1="586" y1="560" x2="593" y2="560" stroke="rgb(136,34,85)" stroke-width="1"/>
<line x1="593" y1="560" x2="600" y2="560" stroke="rgb(136,34,85)" stroke-width="1"/>
<line x1="600" y1="560" x2="607" y2="560" stroke="rgb(136,34,85)" stroke-width="1"/>
<line x1="607" y1="560" x2="614" y2="560" stroke="rgb(136,34,85)" stroke-width="1"/>
<line x1="614" y1="560" x2="621" y2="560" stroke="rgb(136,34,85)" stroke-width="1"/>
<line x1="621" y1="560" x2="628" y2="560" stroke="rgb(136,34,85)" stroke-width="1"/>
<line x1="628" y1="560" x2="635" y2="560" stroke="rgb(136,34,85)" stroke-width="1"/>
<line x1="635" y1="560" x2="642" y2="560" stroke="rgb(136,34,85)" stroke-width="1"/>
<line x1="642" y1="560" x2="649" y2="560" stroke="rgb(136,34,85)" stroke-width="1"/>
<line x1="649" y1="560" x2="656" y2="560" stroke="rgb(136,34,85)" stroke-width="1"/>
<line x1="656" y1="560" x2="663" y2="560" stroke="rgb(136,34,85)" stroke-width="1"/>
<line x1="663" y1="560" x2="670" y2="560" stroke="rgb(136,34,85)" stroke-width="1"/>
<line x1="670" y1="560" x2="677" y2="560" stroke="rgb(136,34,85)" stroke-width="1"/>
<line x1="677" y1="560" x2="684" y2="560" stroke="rgb(136,34,85)" stroke-width="1"/>
<line x1="684" y1="560" x2="691" y2="560" stroke="rgb(136,34,85)" stroke-width="1"/>
<line x1="691" y1="560" x2="698" y2="560" stroke="rgb(136,34,85)" stroke-width="1"/>
<line x1="698" y1="560" x2="705" y2="560" stroke="rgb(136,34,85)" stroke-width="1"/>
<line x1="705" y1="560" x2="712" y2="560" stroke="rgb(136,34,85)" stroke-width="1"/>
<line x1="712" y1="560" x2="719" y2="560" stroke="rgb(136,34,85)" stroke-width="1"/>
<line x1="719" y1="560" x2="726" y2="560" stroke="rgb(136,34,85)" stroke-width="1"/>
<line x1="726" y1="560" x2="733" y2="560" stroke="rgb(136,34,85)" stroke-width="1"/>
<line x1="733" y1="560" x2="740" y2="560" stroke="rgb(136,34,85)" stroke-width="1"/>
<line x1="40" y1="560" x2="47" y2="560" stroke="rgb(51,34,136)" stroke-width="1"/>
<line x1="47" y1="560" x2="54" y2="560" stroke="rgb(51,34,136)" stroke-width="1"/>
<line x1="54" y1="560" x2="61" y2="560" stroke="rgb(51,34,136)" stroke-width="1"/>
<line x1="61" y1="560" x2="68" y2="560" stroke="rgb(51,34,136)" stroke-width="1"/>
<line x1="68" y1="560" x2="75" y2="560" stroke="rgb(51,34,136)" stroke-width="1"/>
<line x1="75" y1="560" x2="82" y2="560" stroke="rgb(51,34,136)" stroke-width="1"/>
<line x1="82" y1="560" x2="89" y2="560" stroke="rgb(51,34,136)" stroke-width="1"/>
<line x1="89" y1="560" x2="96" y2="560" stroke="rgb(51,34,136)" stroke-width="1"/>
<line x1="96" y1="560" x2="103" y2="560" stroke="rgb(51,34,136)" stroke-width="1"/>
<line x1="103" y1="560" x2="110" y2="560" stroke="rgb(51,34,136)" stroke-width="1"/>
<line x1="110" y1="560" x2="117" y2="560" stroke="rgb(51,34,136)" stroke-width="1"/>
<line x1="117" y1="560" x2="124" y2="560" stroke="rgb(51,34,136)" stroke-width="1"/>
<line x1="124" y1="560" x2="131" y2="560" stroke="rgb(51,34,136)" stroke-width="1"/>
<line x1="131" y1="560" x2="138" y2="560" stroke="rgb(51,34,136)" stroke-width="1"/>
<line x1="138" y1="560" x2="145" y2="560" stroke="rgb(51,34,136)" stroke-width="1"/>
<line x1="145" y1="560" x2="152" y2="560" stroke="rgb(51,34,136)" stroke-width="1"/>
<line x1="152" y1="560" x2="159" y2="559" stroke="rgb(51,34,136)" stroke-width="1"/>
<line x1="159" y1="559" x2="166" y2="558" stroke="rgb(51,34,136)" stroke-width="1"/>
<line x1="166" y1="558" x2="173" y2="557" stroke="rgb(51,34,136)" stroke-width="1"/>
<line x1="173" y1="557" x2="180" y2="555" stroke="rgb(51,34,136)" stroke-width="1"/>
<line x1="180" y1="555" x2="187" y2="552" stroke="rgb(51,34,136)" stroke-width="1"/>
<line x1="187" y1="552" x2="194" y2="548" stroke="rgb(51,34,136)" stroke-width="1"/>
<line x1="194" y1="548" x2="201" y2="541" stroke="rgb(51,34,136)" stroke-width="1"/>
<line x1="201" y1="541" x2="208" y2="533" stroke="rgb(51,34,136)" stroke-width="1"/>
<line x1="208" y1="533" x2="215" y2="521" stroke="rgb(51,34,136)" stroke-width="1"/>
<line x1="215" y1="521" x2="222" y2="506" stroke="rgb(51,34,136)" stroke-width="1"/>
<line x1="222" y1="506" x2="229" y2="486" stroke="rgb(51,34,136)" stroke-width="1"/>
<line x1="229" y1="486" x2="236" y2="461" stroke="rgb(51,34,136)" stroke-width="1"/>
<line x1="236" y1="461" x2="243" y2="432" stroke="rgb(51,34,136)" stroke-width="1"/>
<line x1="243" y1="432" x2="250" y2="398" stroke="rgb(51,34,136)" stroke-width="1"/>
<line x1="250" y1="398" x2="257" y2="359" stroke="rgb(51,34,136)" stroke-width="1"/>
<line x1="257" y1="359" x2="264" y2="316" stroke="rgb(51,34,136)" stroke-width="1"/>
<line x1="264" y1="316" x2="271" y2="270" stroke="rgb(51,34,136)" stroke-width="1"/>
<line x1="271" y1="270" x2="278" y2="224" stroke="rgb(51,34,136)" stroke-width="1"/>
<line x1="278" y1="224" x2="285" y2="180" stroke="rgb(51,34,136)" stroke-width="1"/>
<line x1="285" y1="180" x2="292" y2="139" stroke="rgb(51,34,136)" stroke-width="1"/>
<line x1="292" y1="139" x2="299" y2="104" stroke="rgb(51,34,136)" stroke-width="1"/>
<line x1="299" y1="104" x2="306" y2="78" stroke="rgb(51,34,136)" stroke-width="1"/>
<line x1="306" y1="78" x2="313" y2="61" stroke="rgb(51,34,136)" stroke-width="1"/>
<line x1="313" y1="61" x2="320" y2="55" stroke="rgb(51,34,136)" stroke-width="1"/>
<line x1="320" y1="55" x2="327" y2="61" stroke="rgb(51,34,136)" stroke-width="1"/>
<line x1="327" y1="61" x2="334" y2="78" stroke="rgb(51,34,136)" stroke-width="1"/>
<line x1="334" y1="78" x2="341" y2="104" stroke="rgb(51,34,136)" stroke-width="1"/>
<line x1="341" y1="104" x2="348" y2="139" stroke="rgb(51,34,136)" stroke-width="1"/>
<line x1="348" y1="139" x2="355" y2="180" stroke="rgb(51,34,136)" stroke-width="1"/>
<line x1="355" y1="180" x2="362" y2="224" stroke="rgb(51,34,136)" stroke-width="1"/>
<line x1="362" y1="224" x2="369" y2="270" stroke="rgb(51,34,136)" stroke-width="1"/>
<line x1="369" y1="270" x2="376" y2="316" stroke="rgb(51,34,136)" stroke-width="1"/>
<line x1="376" y1="316" x2="383" y2="359" stroke="rgb(51,34,136)" stroke-width="1"/>
<line x1="383" y1="359" x2="390" y2="398" stroke="rgb(51,34,136)" stroke-width="1"/>
<line x1="390" y1="398" x2="397" y2="432" stroke="rgb(51,34,136)" stroke-width="1"/>
<line x1="397" y1="432" x2="404" y2="461" stroke="rgb(51,34,136)" stroke-width="1"/>
<line x1="404" y1="461" x2="411" y2="486" stroke="rgb(51,34,136)" stroke-width="1"/>
<line x1="411" y1="486" x2="418" y2="506" stroke="rgb(51,34,136)" stroke-width="1"/>
<line x1="418" y1="506" x2="425" y2="521" stroke="rgb(51,34,136)" stroke-width="1"/>
<line x1="425" y1="521" x2="432" y2="533" stroke="rgb(51,34,136)" stroke-width="1"/>
<line x1="432" y1="533" x2="439" y2="541" stroke="rgb(51,34,136)" stroke-width="1"/>
<line x1="439" y1="541" x2="446" y2="548" stroke="rgb(51,34,136)" stroke-width="1"/>
<line x1="446" y1="548" x2="453" y2="552" stroke="rgb(51,34,136)" stroke-width="1"/>
<line x1="453" y1="552" x2="460" y2="555" stroke="rgb(51,34,136)" stroke-width="1"/>
<line x1="460" y1="555" x2="467" y2="557" stroke="rgb(51,34,136)" stroke-width="1"/>
<line x1="467" y1="557" x2="474" y2="558" stroke="rgb(51,34,136)" stroke-width="1"/>
<line x1="474" y1="558" x2="481" y2="559" stroke="rgb(51,34,136)" stroke-width="1"/>
<line x1="481" y1="559" x2="488" y2="560" stroke="rgb(51,34,136)" stroke-width="1"/>
<line x1="488" y1="560" x2="495" y2="560" stroke="rgb(51,34,136)" stroke-width="1"/>
<line x1="495" y1="560" x2="502" y2="560" stroke="rgb(51,34,136)" stroke-width="1"/>
<line x1="502" y1="560" x2="509" y2="560" stroke="rgb(51,34,136)" stroke-width="1"/>
<line x1="509" y1="560" x2="516" y2="560" stroke="rgb(51,34,136)" stroke-width="1"/>
<line x1="516" y1="560" x2="523" y2="560" stroke="rgb(51,34,136)" stroke-width="1"/>
<line x1="523" y1="560" x2="530" y2="560" stroke="rgb(51,34,136)" stroke-width="1"/>
<line x1="530" y1="560" x2="537" y2="560" stroke="rgb(51,34,136)" stroke-width="1"/>
<line x1="537" y1="560" x2="544" y2="560" stroke="rgb(51,34,136)" stroke-width="1"/>
<line x1="544" y1="560" x2="551" y2="560" stroke="rgb(51,34,136)" stroke-width="1"/>
<line x1="551" y1="560" x2="558" y2="560" stroke="rgb(51,34,136)" stroke-width="1"/>
<line x1="558" y1="560" x2="565" y2="560" stroke="rgb(51,34,136)" stroke-width="1"/>
<line x1="565" y1="560" x2="572" y2="560" stroke="rgb(51,34,136)" stroke-width="1"/>
<line x1="572" y1="560" x2="579" y2="560" stroke="rgb(51,34,136)" stroke-width="1"/>
<line x1="579" y1="560" x2="586" y2="560" stroke="rgb(51,34,136)" stroke-width="1"/>
<line x1="586" y1="560" x2="593" y2="560" stroke="rgb(51,34,136)" stroke-width="1"/>
<line x1="593" y1="560" x2="600" y2="560" stroke="rgb(51,34,136)" stroke-width="1"/>
<line x1="600" y1="560" x2="607" y2="560" stroke="rgb(51,34,136)" stroke-width="1"/>
<line x1="607" y1="560" x2="614" y2="560" stroke="rgb(51,34,136)" stroke-width="1"/>
<line x1="614" y1="560" x2="621" y2="560" stroke="rgb(51,34,136)" stroke-width="1"/>
<line x1="621" y1="560" x2="628" y2="560" stroke="rgb(51,34,136)" stroke-width="1"/>
<line x1="628" y1="560" x2="635" y2="560" stroke="rgb(51,34,136)" stroke-width="1"/>
<line x1="635" y1="560" x2="642" y2="560" stroke="rgb(51,34,136)" stroke-width="1"/>
<line x1="642" y1="560" x2="649" y2="560" stroke="rgb(51,34,136)" stroke-width="1"/>
<line x1="649" y1="560" x2="656" y2="560" stroke="rgb(51,34,136)" stroke-width="1"/>
<line x1="656" y1="560" x2="663" y2="560" stroke="rgb(51,34,136)" stroke-width="1"/>
<line x1="663" y1="560" x2="670" y2="560" stroke="rgb(51,34,136)" stroke-width="1"/>
<line x1="670" y1="560" x2="677" y2="560" stroke="rgb(51,34,136)" stroke-width="1"/>
<line x1="677" y1="560" x2="684" y2="560" stroke="rgb(51,34,136)" stroke-width="1"/>
<line x1="684" y1="560" x2="691" y2="560" stroke="rgb(51,34,136)" stroke-width="1"/>
<line x1="691" y1="560" x2="698" y2="560" stroke="rgb(51,34,136)" stroke-width="1"/>
<line x1="698" y1="560" x2="705" y2="560" stroke="rgb(51,34,136)" stroke-width="1"/>
<line x1="705" y1="560" x2="712" y2="560" stroke="rgb(51,34,136)" stroke-width="1"/>
<line x1="712" y1="560" x2="719" y2="560" stroke="rgb(51,34,136)" stroke-width="1"/>
<line x1="719" y1="560" x2="726" y2="560" stroke="rgb(51,34,136)" stroke-width="1"/>
<line x1="726" y1="560" x2="733" y2="560" stroke="rgb(51,34,136)" stroke-width="1"/>
<line x1="733" y1="560" x2="740" y2="560" stroke="rgb(51,34,136)" stroke-width="1"/>
<rect width="174" height="43" x="616" y="40" style="fill:rgb(255,255,255);stroke:none"/>
<rect width="174" height="43" x="616" y="40" rx="0" ry="0" style="fill:none;stroke-width:1;stroke:rgb(192,192,192)"/>
<text x="619" y="55" fill="rgb(136,34,85)" font-family="Arial" font-size="12" font-weight="bold">GC count per read</text>
<text x="619" y="75" fill="rgb(51,34,136)" font-family="Arial" font-size="12" font-weight="bold">Theoretical Distribution</text>
</svg>
